<?xml version="1.0" standalone="no"?>
<!DOCTYPE svg PUBLIC "-//W3C//DTD SVG 20010904//EN"
 "http://www.w3.org/TR/2001/REC-SVG-20010904/DTD/svg10.dtd">
<svg version="1.0" xmlns="http://www.w3.org/2000/svg"
 width="210.000000pt" height="170.000000pt" viewBox="0 0 210.000000 170.000000"
 preserveAspectRatio="xMidYMid meet">

<g transform="translate(0.000000,170.000000) scale(0.100000,-0.100000)"
fill="#000000" stroke="none">
<path d="M990 1651 c0 -6 4 -13 10 -16 6 -3 7 1 4 9 -7 18 -14 21 -14 7z"/>
<path d="M1565 1600 c-3 -5 1 -10 10 -10 9 0 13 5 10 10 -3 6 -8 10 -10 10 -2
0 -7 -4 -10 -10z"/>
<path d="M1060 1586 c0 -2 7 -7 16 -10 8 -3 12 -2 9 4 -6 10 -25 14 -25 6z"/>
<path d="M888 1568 c5 -5 16 -8 23 -6 8 3 3 7 -10 11 -17 4 -21 3 -13 -5z"/>
<path d="M315 1560 c-3 -5 1 -10 9 -10 9 0 16 5 16 10 0 6 -4 10 -9 10 -6 0
-13 -4 -16 -10z"/>
<path d="M1483 1483 c9 -2 23 -2 30 0 6 3 -1 5 -18 5 -16 0 -22 -2 -12 -5z"/>
<path d="M1242 1473 c9 -2 19 -14 21 -26 4 -18 5 -17 6 6 1 22 -3 27 -21 26
-16 -1 -18 -3 -6 -6z"/>
<path d="M1613 1473 c9 -2 25 -2 35 0 9 3 1 5 -18 5 -19 0 -27 -2 -17 -5z"/>
<path d="M1138 1453 c7 -3 16 -2 19 1 4 3 -2 6 -13 5 -11 0 -14 -3 -6 -6z"/>
<path d="M1332 1423 c2 -10 10 -18 18 -18 8 0 16 8 18 18 2 12 -3 17 -18 17
-15 0 -20 -5 -18 -17z"/>
<path d="M1417 1434 c-14 -14 -7 -35 11 -32 9 2 17 10 17 17 0 16 -18 25 -28
15z"/>
<path d="M1484 1419 c-3 -6 -2 -15 4 -21 13 -13 32 -2 32 18 0 16 -26 19 -36
3z"/>
<path d="M305 1411 c-8 -15 3 -31 21 -31 9 0 14 7 12 17 -4 20 -24 28 -33 14z"/>
<path d="M858 1413 c7 -3 16 -2 19 1 4 3 -2 6 -13 5 -11 0 -14 -3 -6 -6z"/>
<path d="M234 1395 c-9 -22 5 -38 22 -24 18 15 18 25 -1 33 -9 3 -18 -1 -21
-9z"/>
<path d="M798 1403 c6 -2 18 -2 25 0 6 3 1 5 -13 5 -14 0 -19 -2 -12 -5z"/>
<path d="M738 1393 c6 -2 18 -2 25 0 6 3 1 5 -13 5 -14 0 -19 -2 -12 -5z"/>
<path d="M152 1373 c2 -10 10 -18 18 -18 8 0 16 8 18 18 2 12 -3 17 -18 17
-15 0 -20 -5 -18 -17z"/>
<path d="M688 1383 c6 -2 18 -2 25 0 6 3 1 5 -13 5 -14 0 -19 -2 -12 -5z"/>
<path d="M368 1333 c7 -3 16 -2 19 1 4 3 -2 6 -13 5 -11 0 -14 -3 -6 -6z"/>
<path d="M1628 1333 c12 -2 30 -2 40 0 9 3 -1 5 -23 4 -22 0 -30 -2 -17 -4z"/>
<path d="M298 1323 c6 -2 18 -2 25 0 6 3 1 5 -13 5 -14 0 -19 -2 -12 -5z"/>
<path d="M1748 1323 c18 -2 45 -2 60 0 15 2 0 4 -33 4 -33 0 -45 -2 -27 -4z"/>
<path d="M248 1313 c7 -3 16 -2 19 1 4 3 -2 6 -13 5 -11 0 -14 -3 -6 -6z"/>
<path d="M940 1290 c-220 -37 -668 -108 -705 -112 -24 -2 -30 2 -37 22 -6 20
-7 18 -3 -9 3 -18 5 -37 5 -41 0 -5 15 -5 33 0 17 5 136 25 262 45 527 82 635
101 647 113 17 17 -7 15 -202 -18z"/>
<path d="M1898 1313 c18 -2 45 -2 60 0 15 2 0 4 -33 4 -33 0 -45 -2 -27 -4z"/>
<path d="M188 1303 c6 -2 18 -2 25 0 6 3 1 5 -13 5 -14 0 -19 -2 -12 -5z"/>
<path d="M2028 1303 c12 -2 32 -2 45 0 12 2 2 4 -23 4 -25 0 -35 -2 -22 -4z"/>
<path d="M1088 1243 c7 -3 16 -2 19 1 4 3 -2 6 -13 5 -11 0 -14 -3 -6 -6z"/>
<path d="M478 1233 c7 -3 16 -2 19 1 4 3 -2 6 -13 5 -11 0 -14 -3 -6 -6z"/>
<path d="M1028 1233 c7 -3 16 -2 19 1 4 3 -2 6 -13 5 -11 0 -14 -3 -6 -6z"/>
<path d="M895 1194 c-49 -8 -182 -30 -295 -49 -315 -52 -371 -59 -381 -43 -6
9 -9 7 -9 -9 0 -12 4 -24 8 -27 4 -3 84 8 178 23 93 16 276 45 407 66 130 21
237 42 237 47 0 11 -37 9 -145 -8z"/>
<path d="M775 1088 c-92 -14 -95 -32 -5 -25 80 6 110 14 110 28 0 11 -24 10
-105 -3z"/>
<path d="M639 1066 c-2 -2 -94 -18 -203 -35 -159 -25 -201 -29 -209 -19 -6 9
-7 7 -3 -5 3 -10 6 -22 6 -26 0 -14 392 57 409 74 8 8 13 15 10 15 -3 0 -8 -2
-10 -4z"/>
<path d="M1018 1053 c6 -2 18 -2 25 0 6 3 1 5 -13 5 -14 0 -19 -2 -12 -5z"/>
<path d="M697 1014 c-14 -15 -6 -34 14 -34 14 0 19 5 17 17 -3 18 -20 27 -31
17z"/>
<path d="M767 1004 c-9 -9 4 -34 18 -34 14 0 27 25 18 34 -4 3 -12 6 -18 6 -6
0 -14 -3 -18 -6z"/>
<path d="M845 1001 c-8 -15 3 -31 21 -31 9 0 14 7 12 17 -4 20 -24 28 -33 14z"/>
<path d="M450 944 c-74 -13 -146 -23 -160 -24 -29 0 -58 -16 -48 -25 3 -4 66
3 140 14 187 30 238 41 238 52 0 12 -10 11 -170 -17z"/>
<path d="M728 923 c12 -2 30 -2 40 0 9 3 -1 5 -23 4 -22 0 -30 -2 -17 -4z"/>
<path d="M863 913 c15 -2 39 -2 55 0 15 2 2 4 -28 4 -30 0 -43 -2 -27 -4z"/>
<path d="M1833 913 c9 -2 25 -2 35 0 9 3 1 5 -18 5 -19 0 -27 -2 -17 -5z"/>
<path d="M998 903 c18 -2 45 -2 60 0 15 2 0 4 -33 4 -33 0 -45 -2 -27 -4z"/>
<path d="M20 884 c0 -8 5 -12 10 -9 6 4 8 11 5 16 -9 14 -15 11 -15 -7z"/>
<path d="M1153 893 c9 -2 25 -2 35 0 9 3 1 5 -18 5 -19 0 -27 -2 -17 -5z"/>
<path d="M453 833 c9 -2 25 -2 35 0 9 3 1 5 -18 5 -19 0 -27 -2 -17 -5z"/>
<path d="M313 823 c9 -2 25 -2 35 0 9 3 1 5 -18 5 -19 0 -27 -2 -17 -5z"/>
<path d="M760 820 c0 -5 5 -10 10 -10 6 0 10 5 10 10 0 6 -4 10 -10 10 -5 0
-10 -4 -10 -10z"/>
<path d="M1973 823 c9 -2 23 -2 30 0 6 3 -1 5 -18 5 -16 0 -22 -2 -12 -5z"/>
<path d="M662 800 c0 -14 2 -19 5 -12 2 6 2 18 0 25 -3 6 -5 1 -5 -13z"/>
<path d="M1505 811 c-8 -15 3 -31 21 -31 9 0 14 7 12 17 -4 20 -24 28 -33 14z"/>
<path d="M1580 806 c0 -8 4 -17 9 -20 11 -7 33 18 24 27 -12 12 -33 7 -33 -7z"/>
<path d="M1440 789 c0 -11 5 -17 10 -14 6 3 10 13 10 21 0 8 -4 14 -10 14 -5
0 -10 -9 -10 -21z"/>
<path d="M102 765 c0 -16 2 -22 5 -12 2 9 2 23 0 30 -3 6 -5 -1 -5 -18z"/>
<path d="M330 765 c-10 -12 -9 -16 5 -21 23 -9 40 10 22 25 -11 9 -17 8 -27
-4z"/>
<path d="M177 764 c-14 -15 -6 -34 14 -34 14 0 19 5 17 17 -3 18 -20 27 -31
17z"/>
<path d="M252 753 c2 -10 10 -18 18 -18 22 0 18 29 -3 33 -14 3 -18 -1 -15
-15z"/>
<path d="M1898 753 c6 -2 18 -2 25 0 6 3 1 5 -13 5 -14 0 -19 -2 -12 -5z"/>
<path d="M1773 743 c15 -2 39 -2 55 0 15 2 2 4 -28 4 -30 0 -43 -2 -27 -4z"/>
<path d="M1628 733 c12 -2 32 -2 45 0 12 2 2 4 -23 4 -25 0 -35 -2 -22 -4z"/>
<path d="M672 670 c0 -19 2 -27 5 -17 2 9 2 25 0 35 -3 9 -5 1 -5 -18z"/>
<path d="M801 676 c-28 -31 -55 -120 -48 -163 4 -19 8 -37 9 -39 2 -2 50 11
107 27 57 17 110 28 118 25 11 -5 13 -2 9 10 -3 8 -6 18 -6 20 0 3 -4 3 -8 0
-4 -2 -42 28 -85 68 l-77 72 -19 -20z"/>
<path d="M308 683 c12 -2 32 -2 45 0 12 2 2 4 -23 4 -25 0 -35 -2 -22 -4z"/>
<path d="M1188 632 c-48 -32 -88 -59 -88 -62 0 -6 197 -1 217 5 21 7 -13 117
-36 114 -3 0 -45 -26 -93 -57z"/>
<path d="M158 673 c18 -2 45 -2 60 0 15 2 0 4 -33 4 -33 0 -45 -2 -27 -4z"/>
<path d="M2045 650 c4 -6 11 -8 16 -5 14 9 11 15 -7 15 -8 0 -12 -5 -9 -10z"/>
<path d="M112 625 c0 -16 2 -22 5 -12 2 9 2 23 0 30 -3 6 -5 -1 -5 -18z"/>
<path d="M991 604 c0 -11 3 -14 6 -6 3 7 2 16 -1 19 -3 4 -6 -2 -5 -13z"/>
<path d="M1570 573 c0 -64 20 -405 25 -420 3 -7 10 -10 17 -8 18 7 -11 466
-29 473 -9 2 -13 -10 -13 -45z"/>
<path d="M1760 583 c0 -16 5 -117 12 -225 9 -152 15 -198 25 -198 16 0 17 24
1 263 -9 142 -15 187 -25 187 -8 0 -13 -11 -13 -27z"/>
<path d="M1624 428 c14 -248 18 -278 34 -278 12 0 14 14 8 88 -3 48 -9 135
-12 195 -5 86 -10 107 -22 107 -13 0 -14 -16 -8 -112z"/>
<path d="M1717 533 c-6 -12 19 -373 27 -380 20 -20 22 29 10 197 -7 102 -13
186 -14 188 -1 5 -19 1 -23 -5z"/>
<path d="M1815 518 c-3 -8 -1 -80 4 -159 6 -79 11 -156 11 -171 0 -18 5 -28
15 -28 18 0 19 13 4 208 -10 138 -21 185 -34 150z"/>
<path d="M202 490 c0 -19 2 -27 5 -17 2 9 2 25 0 35 -3 9 -5 1 -5 -18z"/>
<path d="M592 465 c0 -27 4 -63 8 -80 6 -25 8 -20 8 25 0 30 -4 66 -8 80 -6
20 -8 14 -8 -25z"/>
<path d="M542 455 c0 -16 2 -22 5 -12 2 9 2 23 0 30 -3 6 -5 -1 -5 -18z"/>
<path d="M1535 328 c5 -84 8 -161 9 -170 0 -11 8 -18 19 -18 16 0 18 6 13 38
-3 20 -8 97 -12 170 -5 108 -9 132 -22 132 -13 0 -14 -20 -7 -152z"/>
<path d="M1675 378 c16 -225 16 -228 32 -228 12 0 14 14 9 88 -15 204 -18 222
-33 222 -12 0 -13 -14 -8 -82z"/>
<path d="M287 390 c-3 -36 -9 -89 -13 -118 -4 -34 -2 -58 5 -65 8 -8 11 8 12
58 1 57 3 64 9 35 7 -31 7 -29 8 20 1 30 -3 73 -7 95 -8 40 -8 39 -14 -25z"/>
<path d="M512 425 c-3 -55 11 -164 20 -159 5 3 8 16 7 27 -3 40 3 52 11 22 6
-25 8 -20 9 27 0 31 -3 60 -9 63 -5 3 -10 -1 -10 -9 0 -33 -19 -14 -23 22 -3
31 -4 32 -5 7z"/>
<path d="M491 424 c0 -11 3 -14 6 -6 3 7 2 16 -1 19 -3 4 -6 -2 -5 -13z"/>
<path d="M1942 415 c0 -16 2 -22 5 -12 2 9 2 23 0 30 -3 6 -5 -1 -5 -18z"/>
<path d="M242 405 c0 -16 2 -22 5 -12 2 9 2 23 0 30 -3 6 -5 -1 -5 -18z"/>
<path d="M211 368 c-1 -45 2 -58 14 -58 9 0 15 -9 15 -24 0 -14 5 -28 10 -31
6 -4 10 11 10 37 1 24 5 62 9 86 5 23 4 42 0 42 -5 0 -9 -17 -9 -37 0 -28 -3
-34 -10 -23 -8 12 -10 10 -10 -9 0 -35 -9 -21 -19 30 l-9 44 -1 -57z"/>
<path d="M576 378 c-9 -35 -7 -91 4 -108 7 -10 10 7 10 58 0 75 -3 88 -14 50z"/>
<path d="M433 355 c0 -22 2 -30 4 -17 2 12 2 30 0 40 -3 9 -5 -1 -4 -23z"/>
<path d="M328 340 c-12 -67 10 -169 25 -112 3 9 5 0 6 -20 0 -21 6 -38 12 -38
6 0 8 8 5 18 -3 9 -1 24 4 32 7 11 10 2 10 -32 0 -36 4 -48 15 -48 8 0 15 -7
15 -15 0 -8 5 -15 11 -15 8 0 10 13 5 38 -3 20 -6 62 -7 92 l-1 55 -13 -65
c-12 -62 -13 -63 -14 -22 0 24 -5 41 -10 37 -9 -5 -23 28 -34 80 -3 11 -6 0
-8 -25 -2 -44 -3 -43 -8 15 -6 55 -7 57 -13 25z"/>
<path d="M1497 363 c-9 -8 -9 -101 -1 -170 5 -35 11 -53 20 -53 11 0 13 21 8
108 -6 103 -13 130 -27 115z"/>
<path d="M381 334 c0 -11 3 -14 6 -6 3 7 2 16 -1 19 -3 4 -6 -2 -5 -13z"/>
<path d="M490 285 c0 -30 5 -55 10 -55 6 0 10 25 10 55 0 30 -4 55 -10 55 -5
0 -10 -25 -10 -55z"/>
<path d="M1952 275 c0 -16 2 -22 5 -12 2 9 2 23 0 30 -3 6 -5 -1 -5 -18z"/>
<path d="M440 229 c0 -50 3 -60 15 -55 9 3 15 0 15 -9 0 -8 5 -15 10 -15 12 0
12 49 1 105 l-9 40 -1 -54 c-1 -65 -11 -63 -13 3 -1 69 -18 56 -18 -15z"/>
<path d="M705 200 c3 -5 8 -10 11 -10 2 0 4 5 4 10 0 6 -5 10 -11 10 -5 0 -7
-4 -4 -10z"/>
<path d="M750 199 c0 -5 5 -7 10 -4 6 3 10 8 10 11 0 2 -4 4 -10 4 -5 0 -10
-5 -10 -11z"/>
<path d="M823 185 c0 -8 3 -13 5 -10 3 3 12 -1 20 -8 13 -11 14 -9 1 11 -16
26 -26 28 -26 7z"/>
<path d="M863 193 c9 -2 25 -2 35 0 9 3 1 5 -18 5 -19 0 -27 -2 -17 -5z"/>
<path d="M1003 183 c9 -2 25 -2 35 0 9 3 1 5 -18 5 -19 0 -27 -2 -17 -5z"/>
<path d="M1143 173 c9 -2 25 -2 35 0 9 3 1 5 -18 5 -19 0 -27 -2 -17 -5z"/>
<path d="M824 108 l-19 -23 23 19 c12 11 22 21 22 23 0 8 -8 2 -26 -19z"/>
<path d="M710 80 c0 -5 5 -10 11 -10 5 0 7 5 4 10 -3 6 -8 10 -11 10 -2 0 -4
-4 -4 -10z"/>
<path d="M736 45 c8 -19 14 -19 14 0 0 8 -4 15 -10 15 -5 0 -7 -7 -4 -15z"/>
<path d="M1132 41 c2 -7 7 -12 11 -12 12 1 9 15 -3 20 -7 2 -11 -2 -8 -8z"/>
<path d="M453 23 c9 -2 25 -2 35 0 9 3 1 5 -18 5 -19 0 -27 -2 -17 -5z"/>
<path d="M313 13 c9 -2 25 -2 35 0 9 3 1 5 -18 5 -19 0 -27 -2 -17 -5z"/>
</g>
</svg>
