<svg width="204" height="210" viewBox="0 0 204 210" fill="none" xmlns="http://www.w3.org/2000/svg">
<path d="M139.851 97.3946H111.961C111.248 97.3946 110.591 97.0029 110.235 96.368L99.6256 77.4151C99.2339 76.7154 99.2773 75.8446 99.7367 75.1904L108.021 63.3816C108.396 62.848 108.997 62.5317 109.637 62.5317H118.269C118.909 62.5317 119.51 62.848 119.885 63.382L141.467 94.1437C141.905 94.768 141.966 95.5924 141.625 96.2782C141.285 96.9635 140.6 97.3946 139.851 97.3946ZM113.112 93.293H135.955L117.251 66.6329H110.656L103.722 76.5164L113.112 93.293Z" fill="black"/>
<path d="M111.961 97.3945H60.164C59.4524 97.3945 58.795 97.0041 58.4392 96.37C58.0834 95.7359 58.0826 94.9545 58.438 94.3196L79.1014 57.4055C79.4572 56.7702 80.115 56.3789 80.8274 56.3789H91.2971C92.0095 56.3789 92.6673 56.7706 93.0232 57.4055L103.077 75.3667L113.687 94.3196C114.042 94.9541 114.042 95.7359 113.685 96.37C113.329 97.0041 112.672 97.3945 111.961 97.3945ZM63.6113 93.293H108.514L90.146 60.4805H81.9789L63.6113 93.293Z" fill="black"/>
<path d="M147.82 97.3945H52.1953C51.0952 97.3945 50.2031 96.4762 50.2031 95.3438C50.2031 94.2113 51.0952 93.293 52.1953 93.293H147.82C148.921 93.293 149.812 94.2113 149.812 95.3438C149.812 96.4762 148.921 97.3945 147.82 97.3945Z" fill="black"/>
<path d="M72.1172 128.156H52.1953C51.0952 128.156 50.2031 127.238 50.2031 126.105V105.598C50.2031 104.465 51.0952 103.547 52.1953 103.547H72.1172C73.2173 103.547 74.1094 104.465 74.1094 105.598V126.105C74.1094 127.238 73.2173 128.156 72.1172 128.156ZM54.1875 124.055H70.125V107.648H54.1875V124.055Z" fill="black"/>
<path d="M96.0234 109.699H80.0859C78.9859 109.699 78.0938 108.781 78.0938 107.648C78.0938 106.516 78.9859 105.598 80.0859 105.598H96.0234C97.1235 105.598 98.0156 106.516 98.0156 107.648C98.0156 108.781 97.1235 109.699 96.0234 109.699Z" fill="black"/>
<path d="M96.0234 117.902H80.0859C78.9859 117.902 78.0938 116.984 78.0938 115.852C78.0938 114.719 78.9859 113.801 80.0859 113.801H96.0234C97.1235 113.801 98.0156 114.719 98.0156 115.852C98.0156 116.984 97.1235 117.902 96.0234 117.902Z" fill="black"/>
<path d="M125.906 128.156H105.984C104.884 128.156 103.992 127.238 103.992 126.105V105.598C103.992 104.465 104.884 103.547 105.984 103.547H125.906C127.007 103.547 127.898 104.465 127.898 105.598V126.105C127.898 127.238 127.007 128.156 125.906 128.156ZM107.977 124.055H123.914V107.648H107.977V124.055Z" fill="black"/>
<path d="M149.812 109.699H133.875C132.775 109.699 131.883 108.781 131.883 107.648C131.883 106.516 132.775 105.598 133.875 105.598H149.812C150.913 105.598 151.805 106.516 151.805 107.648C151.805 108.781 150.913 109.699 149.812 109.699Z" fill="black"/>
<path d="M149.812 117.902H133.875C132.775 117.902 131.883 116.984 131.883 115.852C131.883 114.719 132.775 113.801 133.875 113.801H149.812C150.913 113.801 151.805 114.719 151.805 115.852C151.805 116.984 150.913 117.902 149.812 117.902Z" fill="black"/>
<path d="M179.297 169.172H24.7031C17.8926 169.172 12.3516 163.468 12.3516 156.457V149.074C12.3516 142.063 17.8926 136.359 24.7031 136.359H82.0781C83.1782 136.359 84.0703 137.277 84.0703 138.41V144.562H119.93V138.41C119.93 137.277 120.821 136.359 121.922 136.359H179.297C186.108 136.359 191.648 142.063 191.648 149.074V156.457C191.648 163.468 186.108 169.172 179.297 169.172ZM24.7031 140.461C20.0892 140.461 16.3359 144.325 16.3359 149.074V156.457C16.3359 161.206 20.0892 165.07 24.7031 165.07H179.297C183.91 165.07 187.664 161.206 187.664 156.457V149.074C187.664 144.325 183.91 140.461 179.297 140.461H123.914V146.613C123.914 147.746 123.022 148.664 121.922 148.664H82.0781C80.978 148.664 80.0859 147.746 80.0859 146.613V140.461H24.7031Z" fill="black"/>
<path d="M177.893 140.461C176.793 140.461 175.901 139.543 175.901 138.41V60.4077C175.901 51.8727 169.156 44.9292 160.865 44.9292H43.1358C34.8448 44.9292 28.0996 51.8727 28.0996 60.4077V138.41C28.0996 139.543 27.2075 140.461 26.1074 140.461C25.0073 140.461 24.1152 139.543 24.1152 138.41V60.4077C24.1152 49.6111 32.6478 40.8276 43.1358 40.8276H160.865C171.353 40.8276 179.886 49.6115 179.886 60.4077V138.41C179.886 139.543 178.993 140.461 177.893 140.461Z" fill="black"/>
<path d="M177.34 128.156H26.6582C25.5581 128.156 24.666 127.238 24.666 126.105C24.666 124.973 25.5581 124.055 26.6582 124.055H177.34C178.441 124.055 179.332 124.973 179.332 126.105C179.332 127.238 178.441 128.156 177.34 128.156Z" fill="black"/>
</svg>
