<svg width="407" height="394" viewBox="0 0 407 394" fill="none" xmlns="http://www.w3.org/2000/svg">
<path d="M374.5 198.5C374.5 200.778 373.403 203.052 371.208 205.306C369.012 207.561 365.746 209.76 361.497 211.87C353 216.09 340.672 219.904 325.398 223.113C294.858 229.528 252.644 233.5 206 233.5C159.356 233.5 117.142 229.528 86.6017 223.113C71.3276 219.904 59.0001 216.09 50.5033 211.87C46.2539 209.76 42.9884 207.561 40.7916 205.306C38.5966 203.052 37.5 200.778 37.5 198.5C37.5 196.222 38.5966 193.948 40.7916 191.694C42.9884 189.439 46.2539 187.24 50.5033 185.13C59.0001 180.91 71.3276 177.096 86.6017 173.887C117.142 167.472 159.356 163.5 206 163.5C252.644 163.5 294.858 167.472 325.398 173.887C340.672 177.096 353 180.91 361.497 185.13C365.746 187.24 369.012 189.439 371.208 191.694C373.403 193.948 374.5 196.222 374.5 198.5Z" stroke="black"/>
<path d="M374.5 223.5C374.5 225.778 373.403 228.052 371.208 230.306C369.012 232.561 365.746 234.76 361.497 236.87C353 241.09 340.672 244.904 325.398 248.113C294.858 254.528 252.644 258.5 206 258.5C159.356 258.5 117.142 254.528 86.6017 248.113C71.3276 244.904 59.0001 241.09 50.5033 236.87C46.2539 234.76 42.9884 232.561 40.7916 230.306C38.5966 228.052 37.5 225.778 37.5 223.5C37.5 221.222 38.5966 218.948 40.7916 216.694C42.9884 214.439 46.2539 212.24 50.5033 210.13C59.0001 205.91 71.3276 202.096 86.6017 198.887C117.142 192.472 159.356 188.5 206 188.5C252.644 188.5 294.858 192.472 325.398 198.887C340.672 202.096 353 205.91 361.497 210.13C365.746 212.24 369.012 214.439 371.208 216.694C373.403 218.948 374.5 221.222 374.5 223.5Z" stroke="black"/>
<path d="M374.5 248.5C374.5 250.778 373.403 253.052 371.208 255.306C369.012 257.561 365.746 259.76 361.497 261.87C353 266.09 340.672 269.904 325.398 273.113C294.858 279.528 252.644 283.5 206 283.5C159.356 283.5 117.142 279.528 86.6017 273.113C71.3276 269.904 59.0001 266.09 50.5033 261.87C46.2539 259.76 42.9884 257.561 40.7916 255.306C38.5966 253.052 37.5 250.778 37.5 248.5C37.5 246.222 38.5966 243.948 40.7916 241.694C42.9884 239.439 46.2539 237.24 50.5033 235.13C59.0001 230.91 71.3276 227.096 86.6017 223.887C117.142 217.472 159.356 213.5 206 213.5C252.644 213.5 294.858 217.472 325.398 223.887C340.672 227.096 353 230.91 361.497 235.13C365.746 237.24 369.012 239.439 371.208 241.694C373.403 243.948 374.5 246.222 374.5 248.5Z" stroke="black"/>
<path d="M289.343 66.6293L289.511 67.5347L290.179 66.9008L337.311 22.177L309.341 80.823L308.945 81.6542L309.858 81.534L374.276 73.0554L317.177 104.061L316.368 104.5L317.177 104.939L374.276 135.945L309.858 127.466L308.945 127.346L309.341 128.177L337.311 186.823L290.179 142.099L289.511 141.465L289.343 142.371L277.5 206.257L265.657 142.371L265.489 141.465L264.821 142.099L217.689 186.823L245.659 128.177L246.055 127.346L245.142 127.466L180.724 135.945L237.823 104.939L238.632 104.5L237.823 104.061L180.724 73.0554L245.142 81.534L246.055 81.6542L245.659 80.823L217.689 22.177L264.821 66.9008L265.489 67.5347L265.657 66.6293L277.5 2.74317L289.343 66.6293Z" stroke="black"/>
<path d="M314 177L331.789 222.06L378.11 207.874L353.972 249.877L393.944 277.247L346.055 284.563L349.578 332.879L314 300L278.422 332.879L281.945 284.563L234.056 277.247L274.028 249.877L249.89 207.874L296.211 222.06L314 177Z" fill="#D9D9D9"/>
<path d="M121.763 291.102L140.663 249L159.715 291.102L194.327 314.134L159.715 337.166L140.663 379.269L121.763 337.166L87 314.134L121.763 291.102Z" fill="#B9FF66"/>
<path d="M52.0495 147.297L87 137L76.802 172.05L87 207L52.0495 196.802L17 207L27.297 172.05L17 137L52.0495 147.297Z" fill="black"/>
</svg>
