<svg width="656" height="619" viewBox="0 0 656 619" fill="none" xmlns="http://www.w3.org/2000/svg">
<mask id="mask0_6152_231" style="mask-type:alpha" maskUnits="userSpaceOnUse" x="39" y="0" width="618" height="619">
<mask id="path-1-outside-1_6152_231" maskUnits="userSpaceOnUse" x="38.5645" y="0" width="618" height="619" fill="black">
<rect fill="white" x="38.5645" width="618" height="619"/>
<path d="M347.782 154.832L367.159 1L367.007 156.047L405.459 5.85946L386.082 159.692L443.002 15.4265L404.551 165.766L479.031 29.7012L421.96 173.967L512.941 48.3798L438.309 184.445L544.126 71.3104L453.296 196.745L572.435 97.8856L466.467 210.868L597.111 127.802L477.82 226.661L617.85 160.603L487.206 243.669L634.351 195.682L494.321 261.741L646.31 232.584L499.166 280.571L653.577 270.7L501.588 299.705L655.999 309.424L501.588 319.143L653.577 348.148L499.166 338.429L646.31 386.264L494.321 357.259L634.351 423.318L487.206 375.331L617.85 458.397L477.82 392.339L597.111 491.198L466.467 407.98L572.435 521.114L453.296 422.103L544.126 547.69L438.309 434.555L512.941 570.468L421.96 444.882L479.031 589.147L404.551 453.234L443.002 603.422L386.082 459.156L405.459 613.141L367.007 462.801L367.159 618L347.782 464.016L328.405 618L328.405 462.801L289.953 613.141L309.482 459.156L252.561 603.422L291.013 453.234L216.532 589.147L273.604 444.882L182.622 570.468L257.254 434.555L151.286 547.69L242.267 422.103L123.128 521.114L229.097 407.98L98.4527 491.198L217.743 392.339L77.7132 458.397L208.357 375.331L61.2123 423.318L201.242 357.259L49.253 386.264L196.398 338.429L41.9866 348.148L193.976 319.143L39.5645 309.424L193.976 299.705L41.9866 270.7L196.398 280.571L49.253 232.584L201.242 261.741L61.2123 195.682L208.357 243.669L77.7132 160.603L217.743 226.661L98.4527 127.802L229.097 210.868L123.128 97.8856L242.267 196.745L151.286 71.3104L257.254 184.445L182.622 48.3798L273.604 173.967L216.532 29.7012L291.013 165.766L252.561 15.4265L309.482 159.692L289.953 5.85946L328.405 156.047V1L347.782 154.832Z"/>
</mask>
<path d="M347.782 154.832L367.159 1L367.007 156.047L405.459 5.85946L386.082 159.692L443.002 15.4265L404.551 165.766L479.031 29.7012L421.96 173.967L512.941 48.3798L438.309 184.445L544.126 71.3104L453.296 196.745L572.435 97.8856L466.467 210.868L597.111 127.802L477.82 226.661L617.85 160.603L487.206 243.669L634.351 195.682L494.321 261.741L646.31 232.584L499.166 280.571L653.577 270.7L501.588 299.705L655.999 309.424L501.588 319.143L653.577 348.148L499.166 338.429L646.31 386.264L494.321 357.259L634.351 423.318L487.206 375.331L617.85 458.397L477.82 392.339L597.111 491.198L466.467 407.98L572.435 521.114L453.296 422.103L544.126 547.69L438.309 434.555L512.941 570.468L421.96 444.882L479.031 589.147L404.551 453.234L443.002 603.422L386.082 459.156L405.459 613.141L367.007 462.801L367.159 618L347.782 464.016L328.405 618L328.405 462.801L289.953 613.141L309.482 459.156L252.561 603.422L291.013 453.234L216.532 589.147L273.604 444.882L182.622 570.468L257.254 434.555L151.286 547.69L242.267 422.103L123.128 521.114L229.097 407.98L98.4527 491.198L217.743 392.339L77.7132 458.397L208.357 375.331L61.2123 423.318L201.242 357.259L49.253 386.264L196.398 338.429L41.9866 348.148L193.976 319.143L39.5645 309.424L193.976 299.705L41.9866 270.7L196.398 280.571L49.253 232.584L201.242 261.741L61.2123 195.682L208.357 243.669L77.7132 160.603L217.743 226.661L98.4527 127.802L229.097 210.868L123.128 97.8856L242.267 196.745L151.286 71.3104L257.254 184.445L182.622 48.3798L273.604 173.967L216.532 29.7012L291.013 165.766L252.561 15.4265L309.482 159.692L289.953 5.85946L328.405 156.047V1L347.782 154.832Z" stroke="black" stroke-width="2" stroke-miterlimit="10" mask="url(#path-1-outside-1_6152_231)"/>
</mask>
<g mask="url(#mask0_6152_231)">
<rect x="-785.723" y="-37.1172" width="1152.83" height="702.852" rx="45" fill="black"/>
</g>
<path d="M90.792 448.607L134.148 472.319L90.792 496.222L67.0742 539.647L43.3565 496.222L0.000460732 472.319L43.3565 448.607L67.0742 404.991L90.792 448.607Z" fill="#B9FF66"/>
<path d="M205.935 232.913L283.409 275.285L205.935 317.998L163.553 395.596L121.171 317.998L43.6964 275.285L121.171 232.913L163.553 154.975L205.935 232.913Z" fill="#191A23"/>
</svg>
