<svg width="601" height="515" viewBox="0 0 601 515" fill="none" xmlns="http://www.w3.org/2000/svg">
<g clip-path="url(#clip0_6126_272)">
<path d="M311.538 449.719L329.139 444.327L324.003 462.679L329.139 480.98L311.538 475.64L293.887 480.98L299.072 462.679L293.887 444.327L311.538 449.719Z" fill="black"/>
<path fill-rule="evenodd" clip-rule="evenodd" d="M329.874 443.56L324.523 462.679L329.874 481.745L311.537 476.182L293.148 481.745L298.551 462.679L293.148 443.56L311.537 449.177L329.874 443.56ZM294.624 445.095L299.593 462.68L294.624 480.215L311.538 475.099L328.403 480.215L323.482 462.68L328.403 445.095L311.538 450.261L294.624 445.095Z" fill="white"/>
</g>
<g clip-path="url(#clip1_6126_272)">
<path d="M125.486 359.236L156.962 377.067L125.486 395.041L108.268 427.696L91.0488 395.041L59.5728 377.067L91.0488 359.236L108.268 326.438L125.486 359.236Z" fill="black"/>
<path fill-rule="evenodd" clip-rule="evenodd" d="M158.004 377.065L125.855 395.424L108.268 428.778L90.6804 395.424L58.531 377.065L90.6804 358.852L108.268 325.353L125.855 358.852L158.004 377.065ZM108.268 327.523L91.4172 359.619L60.6146 377.069L91.4172 394.659L108.268 426.615L125.118 394.659L155.921 377.069L125.118 359.619L108.268 327.523Z" fill="white"/>
</g>
<path fill-rule="evenodd" clip-rule="evenodd" d="M554.441 412.081C559.459 410.498 562.865 407.973 564.681 404.55C566.498 401.126 566.735 396.784 565.345 391.527C563.954 386.264 560.954 380.18 556.434 373.394C547.395 359.827 532.409 343.649 512.603 325.909C473.004 290.44 414.301 248.873 345.883 209.635C277.464 170.396 212.335 140.944 162.356 125.04C137.359 117.085 116.204 112.536 100.344 111.825C92.4129 111.469 85.8631 112.076 80.84 113.66C75.8217 115.242 72.4156 117.768 70.5995 121.191C68.7834 124.614 68.5459 128.957 69.9357 134.214C71.3269 139.476 74.3268 145.56 78.8473 152.346C87.8859 165.914 102.872 182.092 122.678 199.832C162.277 235.301 220.98 276.868 289.398 316.106C357.817 355.344 422.946 384.796 472.925 400.701C497.922 408.656 519.077 413.205 534.936 413.916C542.868 414.272 549.418 413.664 554.441 412.081ZM288.915 317.016C425.836 395.541 549.693 434.956 565.557 405.052C581.422 375.148 483.286 287.249 346.366 208.724C209.445 130.199 85.5884 90.7845 69.7239 120.689C53.8593 150.593 151.995 238.492 288.915 317.016Z" fill="black"/>
<path fill-rule="evenodd" clip-rule="evenodd" d="M534.21 450.212C539.229 448.629 542.635 446.104 544.451 442.681C546.267 439.257 546.505 434.915 545.115 429.657C543.724 424.395 540.724 418.311 536.203 411.525C527.165 397.958 512.179 381.78 492.373 364.039C452.773 328.57 394.071 287.004 325.652 247.765C257.234 208.527 192.104 179.075 142.126 163.171C117.128 155.216 95.9731 150.667 80.114 149.955C72.1824 149.6 65.6327 150.207 60.6095 151.791C55.5913 153.373 52.1851 155.898 50.369 159.322C48.5529 162.745 48.3155 167.088 49.7053 172.345C51.0965 177.607 54.0963 183.691 58.6168 190.477C67.6554 204.045 82.6412 220.223 102.447 237.963C142.047 273.432 200.749 314.998 269.168 354.237C337.586 393.475 402.716 422.927 452.694 438.832C477.692 446.786 498.847 451.335 514.706 452.047C522.638 452.403 529.187 451.795 534.21 450.212ZM268.685 355.147C405.605 433.672 529.462 473.087 545.327 443.183C561.191 413.279 463.056 325.38 326.135 246.855C189.215 168.33 65.358 128.915 49.4934 158.819C33.6289 188.724 131.764 276.622 268.685 355.147Z" fill="black"/>
<path fill-rule="evenodd" clip-rule="evenodd" d="M513.982 488.343C519 486.761 522.406 484.235 524.222 480.812C526.039 477.389 526.276 473.046 524.886 467.789C523.495 462.526 520.495 456.442 515.975 449.657C506.936 436.089 491.95 419.911 472.144 402.171C432.545 366.702 373.842 325.135 305.424 285.897C237.005 246.658 171.876 217.207 121.897 201.302C96.8999 193.347 75.7446 188.798 59.8855 188.087C51.9539 187.731 45.4041 188.338 40.381 189.922C35.3628 191.504 31.9566 194.03 30.1405 197.453C28.3244 200.876 28.0869 205.219 29.4768 210.476C30.8679 215.739 33.8678 221.823 38.3883 228.608C47.4269 242.176 62.4127 258.354 82.2188 276.094C121.818 311.563 180.521 353.13 248.939 392.368C317.358 431.607 382.487 461.058 432.466 476.963C457.463 484.918 478.618 489.467 494.477 490.178C502.409 490.534 508.959 489.927 513.982 488.343ZM248.456 393.279C385.377 471.803 509.234 511.218 525.098 481.314C540.963 451.41 442.827 363.511 305.907 284.986C168.986 206.462 45.1295 167.047 29.2649 196.951C13.4003 226.855 111.536 314.754 248.456 393.279Z" fill="black"/>
<path d="M147.539 108.651C147.539 117.552 140.599 124.767 132.039 124.767C123.479 124.767 116.539 117.552 116.539 108.651C116.539 99.7509 123.479 92.5356 132.039 92.5356C140.599 92.5356 147.539 99.7509 147.539 108.651Z" fill="#B9FF66"/>
<path d="M431.539 452.282C431.539 458.024 427.062 462.679 421.539 462.679C416.016 462.679 411.539 458.024 411.539 452.282C411.539 446.54 416.016 441.885 421.539 441.885C427.062 441.885 431.539 446.54 431.539 452.282Z" fill="#B9FF66"/>
<path d="M105.539 67.0625C105.539 80.5569 95.0178 91.4962 82.0391 91.4962C69.0604 91.4962 58.5391 80.5569 58.5391 67.0625C58.5391 53.5682 69.0604 42.6289 82.0391 42.6289C95.0178 42.6289 105.539 53.5682 105.539 67.0625Z" fill="black"/>
<path d="M306.511 398.83C300.207 401.07 293.003 396.63 290.497 388.933L251.498 270.132L274.286 262.027L313.324 380.991C315.83 388.607 312.776 396.59 306.511 398.83Z" fill="black"/>
<path d="M303.104 400.296C301.264 400.296 299.384 399.848 297.583 398.911C293.942 397.037 291.044 393.535 289.635 389.218L250.636 270.417C250.48 269.969 250.715 269.439 251.184 269.276L273.973 261.172C274.208 261.09 274.443 261.09 274.638 261.212C274.834 261.334 274.991 261.497 275.069 261.742L314.107 380.706C316.73 388.77 313.441 397.282 306.746 399.685C305.61 400.092 304.357 400.296 303.104 400.296ZM252.594 270.702L291.318 388.648C292.571 392.517 295.156 395.693 298.366 397.323C300.951 398.626 303.731 398.87 306.237 397.974C312.032 395.897 314.851 388.403 312.501 381.276L273.738 263.167L252.594 270.702Z" fill="black"/>
<path d="M270.253 159.476L196.523 214.172L167.823 245.166L156.546 265.896L156.507 266.059C154.275 269.643 155.567 277.91 159.757 286.341C163.868 294.649 169.663 300.432 173.735 300.758L173.618 300.84L195.27 303.283L235.796 296.563L321.82 264.552L428.753 283.612L429.497 283.653C402.637 278.44 366.379 241.093 340.027 188.27C313.715 135.487 305.336 83.3158 316.887 57.5762H316.847L270.84 158.172L270.253 159.476Z" fill="#B9FF66"/>
<path d="M447.268 281.353C473.696 267.078 468.585 202.361 435.854 136.804C403.123 71.247 355.165 29.675 328.738 43.9504C302.31 58.2258 307.421 122.943 340.152 188.5C372.883 254.057 420.841 295.629 447.268 281.353Z" fill="white"/>
<path d="M435.645 285.078C424.133 285.078 410.272 278.399 395.354 265.407C375.033 247.732 355.103 220.485 339.245 188.636C315.243 140.415 305.336 90.9725 314.029 62.6671C316.926 53.2184 321.782 46.6206 328.399 43.0773C341.555 36.0723 360.075 42.0184 380.593 59.8569C400.914 77.5326 420.844 104.779 436.702 136.628C460.744 184.849 470.65 234.292 461.918 262.597C459.021 272.046 454.165 278.644 447.548 282.187C443.985 284.142 439.991 285.078 435.645 285.078ZM340.38 42.0184C336.347 42.0184 332.588 42.8737 329.221 44.7064C322.995 48.0053 318.453 54.2773 315.713 63.278C307.138 91.1762 317.005 140.09 340.811 187.903C373.232 252.945 420.766 294.568 446.804 280.68C453.03 277.381 457.572 271.109 460.313 262.108C468.888 234.21 459.021 185.297 435.214 137.483C406.983 80.8722 367.358 42.0184 340.38 42.0184Z" fill="black"/>
<path d="M435.645 285.078C424.133 285.078 410.272 278.399 395.354 265.407C375.033 247.731 355.103 220.485 339.245 188.636C315.243 140.415 305.336 90.9723 314.029 62.6668C316.926 53.2181 321.782 46.6203 328.399 43.0771C337.209 38.3527 348.72 39.5338 361.681 46.4574C374.093 53.096 387.523 64.8661 400.601 80.4646C400.914 80.8312 400.875 81.4014 400.523 81.7272C400.17 82.053 399.622 82.0123 399.309 81.6457C372.762 49.96 345.901 35.7869 329.221 44.7061C322.995 48.0051 318.453 54.277 315.713 63.2778C307.138 91.1759 317.005 140.089 340.811 187.903C369.003 244.473 408.667 283.368 435.606 283.368C439.639 283.368 443.398 282.512 446.765 280.68C452.991 277.381 457.533 271.109 460.274 262.108C468.849 234.21 458.982 185.296 435.175 137.483C428.088 123.228 420.1 109.829 411.525 97.6515C411.251 97.2443 411.33 96.6741 411.721 96.389C412.113 96.1039 412.661 96.1853 412.935 96.5926C421.588 108.852 429.576 122.332 436.741 136.668C460.744 184.848 470.65 234.291 461.918 262.597C459.021 272.045 454.165 278.643 447.548 282.186C443.985 284.141 439.991 285.078 435.645 285.078Z" fill="black"/>
<path d="M387.305 197.901C393.428 194.594 392.25 179.614 384.675 164.442C377.1 149.271 365.997 139.653 359.874 142.96C353.752 146.267 354.93 161.247 362.505 176.418C370.079 191.59 381.183 201.208 387.305 197.901Z" fill="#B9FF66"/>
<path d="M384.626 199.47C377.891 199.47 368.494 190.428 361.72 176.785C356.082 165.463 353.772 153.815 355.847 147.095C356.591 144.732 357.805 143.063 359.488 142.167C366.145 138.623 377.539 148.276 385.448 164.119C391.087 175.441 393.397 187.089 391.322 193.809C390.578 196.171 389.364 197.841 387.68 198.737C386.74 199.225 385.722 199.47 384.626 199.47ZM362.542 143.185C361.72 143.185 360.937 143.348 360.271 143.714C358.979 144.407 358.04 145.71 357.452 147.624C355.534 153.896 357.765 165.055 363.208 175.97C370.413 190.428 381.259 200.162 386.858 197.148C388.15 196.456 389.09 195.153 389.677 193.238C391.596 186.926 389.325 175.807 383.921 164.892C377.578 152.226 368.494 143.185 362.542 143.185Z" fill="#B9FF66"/>
<path d="M429.694 269.887C419.592 269.887 407.454 264.022 394.376 252.659C376.599 237.183 359.136 213.317 345.275 185.459C324.249 143.266 315.595 99.973 323.191 75.1701C325.737 66.8618 330.004 61.0785 335.839 57.9425C349.23 50.8153 368.925 59.0422 389.912 80.5054C390.264 80.8719 390.264 81.4014 389.912 81.7679C389.56 82.1345 389.051 82.1345 388.698 81.7679C368.259 60.8749 349.269 52.7294 336.622 59.5309C331.218 62.4225 327.264 67.8392 324.836 75.6996C317.357 100.054 325.971 142.818 346.802 184.645C371.431 234.128 406.083 268.095 429.655 268.095C433.179 268.095 436.428 267.321 439.404 265.773C444.808 262.882 448.762 257.465 451.19 249.605C458.669 225.25 450.054 182.486 429.224 140.659C422.92 128.034 415.872 116.182 408.276 105.471C408.002 105.064 408.08 104.494 408.472 104.209C408.863 103.924 409.411 104.005 409.685 104.412C417.36 115.246 424.447 127.138 430.79 139.845C451.816 182.038 460.47 225.331 452.874 250.134C450.329 258.443 446.061 264.226 440.226 267.362C437.016 269.032 433.492 269.887 429.694 269.887Z" fill="black"/>
<path d="M195.31 304.139C195.271 304.139 195.232 304.139 195.232 304.139L173.579 301.695C173.462 301.695 173.344 301.654 173.227 301.573C168.763 300.84 163.125 294.975 159.013 286.748C154.628 278.073 153.336 269.602 155.724 265.611L155.764 265.488L167.04 244.718C167.079 244.636 167.119 244.595 167.158 244.555L195.858 213.561C195.898 213.521 195.937 213.48 195.976 213.439L269.509 158.865L316.026 57.1688C316.143 56.9652 316.3 56.8023 316.535 56.7208C316.77 56.6394 317.005 56.6394 317.201 56.7616C317.631 56.9652 317.827 57.4946 317.631 57.9426C305.846 84.2117 315.165 136.424 340.772 187.822C366.419 239.301 402.167 277.422 429.694 282.675C430.124 282.757 430.438 283.164 430.398 283.653C430.359 284.101 429.968 284.427 429.537 284.467L428.793 284.427C428.754 284.427 428.715 284.427 428.676 284.427L321.938 265.407L236.11 297.337C236.071 297.337 235.993 297.378 235.953 297.378L195.428 304.098C195.389 304.139 195.349 304.139 195.31 304.139ZM174.206 299.984L195.31 302.347L235.64 295.627L321.625 263.656C321.782 263.615 321.899 263.574 322.056 263.615L418.143 280.72C392.183 268.869 361.838 233.884 339.323 188.677C316.966 143.796 306.981 98.2219 312.463 69.4277L271.037 159.842C270.958 159.964 270.88 160.086 270.762 160.168L197.111 214.865L168.528 245.695L157.251 266.466C157.251 266.507 157.212 266.547 157.212 266.547C155.176 269.846 156.547 277.992 160.501 285.934C164.378 293.712 169.977 299.577 173.814 299.862C173.971 299.862 174.088 299.903 174.206 299.984Z" fill="black"/>
<path d="M270.369 159.15L316.847 57.5352H316.886C305.335 83.2747 313.753 135.446 340.027 188.229C366.378 241.093 402.636 278.44 429.575 283.571L428.831 283.53L322.054 264.511L319.587 264.063C307.175 261.782 290.613 245.002 278.749 221.055C266.571 196.496 264.418 172.019 269.821 160.371L270.369 159.15Z" fill="white"/>
<path d="M429.575 284.467C429.536 284.467 429.575 284.467 429.575 284.467L428.792 284.426C428.753 284.426 428.713 284.426 428.674 284.426L321.898 265.407L319.431 264.959C306.314 262.556 289.673 245.084 277.966 221.503C264.692 194.704 264.026 170.838 269.038 160.005L269.626 158.783L316.103 57.2094C316.22 57.0057 316.377 56.8428 316.612 56.7614C316.847 56.6799 317.082 56.6799 317.278 56.8021C317.708 57.0057 317.904 57.5352 317.708 57.9832C305.923 84.2522 315.242 136.465 340.849 187.862C366.496 239.341 402.245 277.462 429.771 282.716C430.201 282.797 430.515 283.205 430.475 283.693C430.358 284.101 430.006 284.467 429.575 284.467ZM312.383 69.4275L271.153 159.557L270.565 160.779C265.593 171.531 267.041 195.56 279.493 220.648C290.965 243.781 307.136 260.886 319.744 263.167L322.211 263.615L418.102 280.72C392.142 268.869 361.797 233.884 339.283 188.677C316.925 143.795 306.941 98.2217 312.383 69.4275Z" fill="black"/>
<path d="M194.135 304.016C194.096 304.016 194.057 304.016 194.057 304.016L173.54 301.736C173.422 301.736 173.305 301.695 173.187 301.614C168.723 300.88 163.085 295.016 158.974 286.789C154.628 278.073 153.335 269.602 155.724 265.611L155.763 265.488L167.04 244.718C167.275 244.27 167.784 244.147 168.214 244.392C168.645 244.636 168.763 245.166 168.528 245.614L157.251 266.466C157.251 266.507 157.212 266.547 157.212 266.547C155.176 269.846 156.546 277.992 160.501 285.934C164.377 293.712 169.976 299.577 173.814 299.862C173.931 299.862 174.088 299.903 174.166 299.984L194.213 302.224C194.683 302.265 195.036 302.713 194.957 303.202C194.918 303.65 194.566 304.016 194.135 304.016Z" fill="black"/>
<path d="M195.505 303.121C188.849 302.632 179.53 292.817 172.756 279.254C165.591 264.878 163.907 250.012 168.292 244.718L156.585 265.896L156.507 266.059C154.275 269.643 155.567 277.91 159.757 286.341C163.868 294.649 169.663 300.433 173.735 300.758L173.618 300.84L195.505 303.121Z" fill="white"/>
<path d="M195.506 304.016C195.466 304.016 195.466 304.016 195.427 304.016C195.271 304.016 195.075 303.976 194.918 303.976L173.54 301.736C173.422 301.736 173.305 301.695 173.187 301.614C168.723 300.88 163.085 295.016 158.974 286.789C154.628 278.073 153.335 269.602 155.724 265.611L155.763 265.488L166.061 246.835C166.452 245.777 166.961 244.84 167.588 244.066C167.862 243.699 168.371 243.659 168.723 243.903C169.076 244.188 169.193 244.677 168.958 245.084L167.51 247.65C165.199 254.126 167.47 266.832 173.422 278.725C179.883 291.717 188.693 301.206 194.997 302.061L195.466 302.102C195.936 302.143 196.289 302.591 196.25 303.08C196.289 303.65 195.936 304.016 195.506 304.016ZM174.166 299.984L189.123 301.573C183.367 297.744 177.024 289.843 171.973 279.662C167.079 269.846 164.651 259.664 165.043 252.334L157.251 266.466C157.251 266.507 157.212 266.547 157.212 266.547C155.176 269.846 156.546 277.992 160.501 285.934C164.377 293.712 169.976 299.577 173.814 299.862C173.931 299.862 174.088 299.903 174.166 299.984Z" fill="black"/>
<path d="M234.347 296.726L236.07 296.359C226.751 298.396 212.028 283.734 201.652 262.922C191.041 241.663 189.044 220.444 196.562 214.172L195.583 215.19L168.37 244.595C163.907 249.808 165.551 264.755 172.756 279.213C179.686 293.142 189.514 303.079 196.21 303.039L234.347 296.726Z" fill="black"/>
<path d="M196.171 303.976C189.045 303.976 179.139 293.997 171.973 279.661C164.691 265 162.85 249.686 167.706 244.025L194.409 215.19C194.879 214.539 195.427 213.968 196.015 213.48C196.367 213.195 196.876 213.235 197.189 213.561C197.503 213.928 197.503 214.457 197.189 214.783L195.662 216.453C190.22 224.028 192.921 243.414 202.436 262.515C212.695 283.123 227.026 297.256 235.796 295.545L235.914 295.504C236.384 295.423 236.814 295.708 236.932 296.197C237.01 296.685 236.736 297.133 236.266 297.256C236.227 297.256 236.188 297.256 236.149 297.296L234.544 297.622H234.504L196.367 303.935C196.289 303.935 196.211 303.976 196.171 303.976ZM192.138 220.24L168.998 245.247C164.691 250.297 166.648 265.04 173.54 278.847C180.274 292.368 189.789 302.143 196.171 302.184L229.845 296.604C220.761 293.264 209.562 280.68 200.909 263.371C192.687 246.876 189.515 230.096 192.138 220.24Z" fill="black"/>
<path d="M359.88 142.94C353.733 146.199 354.633 161.308 362.464 176.377C375.581 201.588 386.036 198.615 387.25 198.167C387.289 198.167 387.289 198.207 387.25 198.207L364.735 217.064C358.118 207.412 351.814 196.66 346.019 185.052C340.498 173.934 335.839 162.856 332.158 152.104L359.88 142.94Z" fill="black"/>
<path d="M364.735 217.96C364.696 217.96 364.657 217.96 364.618 217.96C364.383 217.919 364.187 217.797 364.03 217.594C357.256 207.697 350.953 196.863 345.275 185.501C339.832 174.586 335.134 163.467 331.375 152.471C331.297 152.226 331.297 151.982 331.414 151.778C331.532 151.575 331.688 151.412 331.923 151.33L359.645 142.167C360.076 142.045 360.546 142.248 360.702 142.696C360.859 143.144 360.702 143.633 360.311 143.837C358.979 144.529 358 145.914 357.413 147.95C355.495 154.344 357.844 165.666 363.286 176.052C376.09 200.651 385.957 197.841 387.014 197.434C387.406 197.271 387.876 197.474 388.072 197.841C388.267 198.207 388.189 198.737 387.876 199.022L365.283 217.756C365.127 217.879 364.931 217.96 364.735 217.96ZM333.293 152.674C337.013 163.304 341.555 174.056 346.802 184.645C352.284 195.642 358.392 206.108 364.931 215.761L384.469 199.388C380.006 199.185 371.587 195.723 361.72 176.785C356.004 165.829 353.654 154.263 355.729 147.298C356.004 146.402 356.317 145.629 356.708 144.895L333.293 152.674Z" fill="black"/>
<path d="M475.725 84.8393C493.625 75.062 500.549 52.107 491.189 33.568C481.829 15.0289 459.731 7.92608 441.831 17.7034C423.931 27.4807 417.007 50.4356 426.367 68.9747C435.727 87.5137 457.825 94.6166 475.725 84.8393Z" fill="black"/>
<path d="M442.106 42.8737C443.829 40.43 446.374 38.9231 449.272 38.5973C451.464 38.3529 453.5 38.8417 455.419 40.0635C456.398 40.6744 457.259 41.4482 458.082 42.3849C458.669 41.2853 459.374 40.3079 460.196 39.4933C461.801 37.8642 463.72 36.9275 465.873 36.6831C468.771 36.3573 471.59 37.2533 473.783 39.2489C475.936 41.2039 477.307 44.0548 477.659 47.2722C478.012 50.5711 477.15 53.7478 474.957 57.2504C473 60.3864 470.024 63.6445 466.578 67.4729C465.404 68.7762 464.072 70.2423 462.702 71.79C462.35 72.1973 461.841 72.4823 461.292 72.5231C460.744 72.6045 460.235 72.4416 459.765 72.1158C458.082 70.894 456.476 69.7536 455.067 68.7762C450.916 65.8438 447.314 63.3187 444.73 60.7122C441.832 57.8205 440.344 54.8882 439.992 51.5893C439.679 48.3718 440.423 45.2766 442.106 42.8737Z" fill="white"/>
<path d="M577.274 86.9139C590.379 73.2835 590.379 51.1842 577.274 37.5538C564.17 23.9234 542.924 23.9234 529.819 37.5538C516.715 51.1842 516.715 73.2835 529.819 86.9139C542.924 100.544 564.17 100.544 577.274 86.9139Z" fill="#B9FF66"/>
<path d="M553.541 98.0188C534.589 98.0188 519.123 81.9723 519.123 62.2196C519.123 42.5077 534.55 26.4204 553.541 26.4204C572.531 26.4204 587.958 42.4669 587.958 62.2196C587.958 81.9316 572.531 98.0188 553.541 98.0188ZM553.541 28.2124C535.529 28.2124 520.846 43.4444 520.846 62.2196C520.846 80.9541 535.49 96.2268 553.541 96.2268C571.552 96.2268 586.235 80.9949 586.235 62.2196C586.235 43.4851 571.591 28.2124 553.541 28.2124Z" fill="#B9FF66"/>
<path d="M562.624 65.6813C560.745 65.6813 559.1 66.618 558.004 68.0842L546.688 63.482C546.688 63.3191 546.727 63.1969 546.727 63.034C546.727 62.7489 546.688 62.4638 546.649 62.1787L558.239 56.5991C559.296 57.8616 560.862 58.6762 562.624 58.7169C565.835 58.7169 568.497 55.9882 568.497 52.6078C568.497 49.2275 565.874 46.458 562.624 46.458C559.413 46.458 556.751 49.1867 556.751 52.5671C556.751 52.8522 556.79 53.1373 556.829 53.4224L545.239 59.002C544.182 57.7394 542.616 56.9249 540.854 56.8842C537.643 56.8842 534.98 59.6129 534.98 62.9933C534.98 66.3736 537.604 69.1431 540.854 69.1431C542.733 69.1431 544.378 68.2063 545.474 66.7402L556.79 71.3423C556.79 71.5052 556.751 71.6274 556.751 71.7903C556.751 75.1707 559.374 77.9401 562.624 77.9401C565.835 77.9401 568.497 75.2114 568.497 71.8311C568.458 68.4507 565.835 65.722 562.624 65.6813Z" fill="black"/>
<path d="M563.069 197.541C578.435 186.447 582.296 164.571 571.692 148.68C561.087 132.789 540.034 128.9 524.667 139.994C509.301 151.089 505.44 172.964 516.044 188.855C526.649 204.746 547.702 208.635 563.069 197.541Z" fill="black"/>
<path d="M535.413 185.46L530.48 157.643C530.245 156.217 531.498 155.036 532.829 155.403L562 163.996C563.488 164.444 563.84 166.44 562.626 167.417L538.35 186.641C537.293 187.537 535.687 186.926 535.413 185.46Z" fill="white"/>
<path d="M543.537 311.484C562.514 301.875 570.454 278.183 561.273 258.566C552.092 238.949 529.266 230.836 510.289 240.445C491.313 250.054 483.373 273.746 492.554 293.363C501.735 312.98 524.561 321.093 543.537 311.484Z" fill="#B9FF66"/>
<path d="M526.72 316.438C522.648 316.438 518.497 315.787 514.464 314.361C504.597 310.94 496.609 303.772 491.989 294.079C487.369 284.427 486.664 273.471 489.992 263.208C496.883 242.071 519.045 230.545 539.445 237.591C549.312 241.012 557.3 248.18 561.92 257.873C566.541 267.525 567.245 278.481 563.917 288.744C558.357 305.686 543.047 316.438 526.72 316.438ZM527.111 237.346C511.488 237.346 496.844 247.609 491.558 263.819C488.387 273.634 489.052 284.101 493.477 293.305C497.901 302.551 505.537 309.433 514.973 312.692C534.472 319.412 555.655 308.415 562.233 288.215C565.405 278.399 564.739 267.932 560.315 258.728C555.89 249.483 548.255 242.6 538.819 239.342C534.942 237.957 530.988 237.346 527.111 237.346Z" fill="black"/>
<path d="M546.377 269.562C545.985 279.458 529.893 302.591 526.055 308.008C525.664 308.578 524.842 308.537 524.489 307.927C522.062 303.854 514.035 290.169 509.845 279.092C508.162 274.693 507.104 270.702 507.222 267.892C507.652 256.651 516.776 247.895 527.582 248.343C538.389 248.872 546.808 258.321 546.377 269.562Z" fill="black"/>
<path d="M533.132 275.348C536.634 271.706 536.634 265.801 533.132 262.159C529.63 258.516 523.953 258.516 520.452 262.159C516.95 265.801 516.95 271.706 520.452 275.348C523.953 278.99 529.63 278.99 533.132 275.348Z" fill="#B9FF66"/>
<defs>
<clipPath id="clip0_6126_272">
<rect width="36" height="37.4302" fill="white" transform="translate(293.539 443.964)"/>
</clipPath>
<clipPath id="clip1_6126_272">
<rect width="71.7365" height="71.7365" fill="white" transform="matrix(0.693203 0.720743 -0.693203 0.720743 108.268 325.435)"/>
</clipPath>
</defs>
</svg>
