<svg width="181" height="176" viewBox="0 0 181 176" fill="none" xmlns="http://www.w3.org/2000/svg">
<path d="M162.142 141.463C174.48 126.039 181 107.574 181 88C181 64.6278 171.586 42.6548 154.493 26.1281C137.4 9.60172 114.673 0.5 90.4997 0.5C66.3265 0.5 43.5997 9.60172 26.5068 26.1281C9.41341 42.6548 0 64.6278 0 88C0 111.372 9.41341 133.345 26.5068 149.872C43.5997 166.399 66.3265 175.5 90.4997 175.5C110.481 175.5 129.416 169.332 145.268 157.662L151.892 164.066C152.196 164.36 152.609 164.526 153.04 164.526C153.471 164.526 153.884 164.36 154.189 164.066L168.706 150.03C169.34 149.417 169.34 148.422 168.706 147.809L162.142 141.463ZM90.4997 172.359C42.3896 172.359 3.24865 134.516 3.24865 88C3.24865 41.4843 42.3896 3.64133 90.4997 3.64133C138.61 3.64133 177.751 41.4843 177.751 88C177.751 106.737 171.555 124.419 159.826 139.224L133.31 113.587L162.884 101.213C163.511 100.951 163.9 100.338 163.861 99.6798C163.821 99.0213 163.36 98.4569 162.707 98.267L154.984 96.0241C155.332 93.3772 155.516 90.6823 155.516 88.0004C155.516 53.3386 126.35 25.1395 90.5001 25.1395C54.6503 25.1395 25.4835 53.3386 25.4835 88C25.4835 122.661 54.6499 150.861 90.4997 150.861C93.0764 150.861 95.663 150.705 98.2118 150.414L100.651 158.265C100.848 158.897 101.431 159.343 102.112 159.381C102.803 159.419 103.427 159.042 103.698 158.437L116.496 129.843L142.947 155.418C127.737 166.501 109.617 172.359 90.4997 172.359ZM74.8753 75.302L88.5519 119.323C71.5571 118.345 58.0392 104.673 58.0392 88.0004C58.0392 70.695 72.601 56.6163 90.4997 56.6163C107.952 56.6163 122.226 70.0039 122.927 86.7143L76.8985 73.3459C76.3263 73.1792 75.7052 73.3307 75.2824 73.7395C74.8597 74.1482 74.7033 74.7484 74.8753 75.302ZM126.205 87.6659C126.018 68.7821 110.075 53.4746 90.4997 53.4746C70.8095 53.4746 54.7902 68.9628 54.7902 88C54.7902 106.729 70.2934 122.021 89.5434 122.513L97.2631 147.36C95.0247 147.595 92.758 147.72 90.4997 147.72C56.4415 147.72 28.7325 120.93 28.7325 88C28.7325 55.0704 56.4415 28.2804 90.4997 28.2804C124.558 28.2804 152.267 55.0704 152.267 88C152.267 90.3745 152.113 92.7586 151.825 95.1068L126.205 87.6659ZM153.04 160.734L117.103 125.988C116.796 125.691 116.381 125.528 115.954 125.528C115.853 125.528 115.751 125.537 115.65 125.555C115.121 125.653 114.677 125.997 114.463 126.475L102.483 153.242L78.8556 77.1942L157.511 100.038L129.826 111.622C129.332 111.828 128.976 112.258 128.875 112.769C128.774 113.28 128.942 113.806 129.322 114.174L165.26 148.92L153.04 160.734Z" fill="black"/>
<path d="M90.4976 13.7756C111.003 13.7756 130.282 21.4966 144.782 35.5154C159.281 49.5346 167.266 68.1738 167.266 88C167.266 88.8674 167.993 89.5707 168.891 89.5707C169.788 89.5707 170.515 88.8674 170.515 88C170.515 67.3349 162.192 47.9067 147.079 33.2943C131.966 18.6816 111.871 10.6343 90.4976 10.6343C89.6004 10.6343 88.873 11.3376 88.873 12.2049C88.873 13.0723 89.6001 13.7756 90.4976 13.7756Z" fill="black"/>
<path d="M90.5 162.224C48.1697 162.224 13.7315 128.927 13.7315 87.9999C13.7315 87.1325 13.0044 86.4292 12.1069 86.4292C11.2094 86.4292 10.4824 87.1325 10.4824 87.9999C10.4824 130.659 46.3781 165.365 90.5 165.365C91.3975 165.365 92.1245 164.662 92.1245 163.795C92.1245 162.927 91.3975 162.224 90.5 162.224Z" fill="black"/>
<path d="M90.5025 36.5864C61.181 36.5864 37.3262 59.6504 37.3262 88.0003C37.3262 88.8677 38.0532 89.571 38.9507 89.571C39.8482 89.571 40.5752 88.8677 40.5752 88.0003C40.5752 61.383 62.9725 39.7278 90.5025 39.7278C91.4 39.7278 92.1271 39.0245 92.1271 38.1571C92.1271 37.2893 91.4 36.5864 90.5025 36.5864Z" fill="black"/>
</svg>
