<svg width="192" height="187" viewBox="0 0 192 187" fill="none" xmlns="http://www.w3.org/2000/svg">
<path d="M94.957 111.893C89.7877 111.893 85.582 116.064 85.582 121.192C85.582 126.319 89.7877 130.491 94.957 130.491C100.126 130.491 104.332 126.319 104.332 121.192C104.332 116.064 100.126 111.893 94.957 111.893ZM94.957 127.168C91.6346 127.168 88.9321 124.487 88.9321 121.192C88.9321 117.896 91.6346 115.215 94.957 115.215C98.2795 115.215 100.982 117.896 100.982 121.192C100.982 124.487 98.2791 127.168 94.957 127.168Z" fill="black"/>
<path d="M178.776 0H13.2248C5.93272 0 0 5.88507 0 13.1181V131.072C0 138.306 5.93272 144.191 13.2248 144.191H71.3565L64.4665 166.888H63.694C58.0758 166.888 53.5048 171.422 53.5048 176.995V184.671C53.5048 185.589 54.2544 186.333 55.1798 186.333H136.82C137.746 186.333 138.495 185.589 138.495 184.671V176.995C138.495 171.422 133.923 166.888 128.304 166.888H127.533L120.643 144.191H178.775C186.067 144.191 192 138.306 192 131.072V13.1181C192 5.88507 186.068 0 178.776 0ZM13.2248 3.32291H178.776C184.221 3.32291 188.651 7.71698 188.651 13.1185V13.5755H152.787C151.861 13.5755 151.112 14.319 151.112 15.2369C151.112 16.1548 151.861 16.8984 152.787 16.8984H188.651V103.702H3.35004V100.26H70.6223C71.5477 100.26 72.2973 99.5169 72.2973 98.599C72.2973 97.6811 71.5477 96.9376 70.6223 96.9376H3.35004V13.1181C3.35004 7.71698 7.77957 3.32291 13.2248 3.32291ZM135.145 176.996V183.01H56.8552V176.996C56.8552 173.255 59.9231 170.211 63.6944 170.211H128.305C132.077 170.211 135.145 173.254 135.145 176.996ZM124.035 166.888H67.9651L74.8548 144.191H117.145L124.035 166.888ZM178.776 140.868H13.2248C7.77997 140.868 3.35004 136.474 3.35004 131.073V119.373H34.0494C34.9748 119.373 35.7244 118.629 35.7244 117.711C35.7244 116.793 34.9748 116.05 34.0494 116.05H3.35004V107.024H188.65V131.073C188.65 136.474 184.221 140.868 178.776 140.868Z" fill="black"/>
<path d="M119.683 16.8981H143.92C144.845 16.8981 145.595 16.1546 145.595 15.2367C145.595 14.3187 144.845 13.5752 143.92 13.5752H119.683C118.757 13.5752 118.008 14.3187 118.008 15.2367C118.008 16.1546 118.757 16.8981 119.683 16.8981Z" fill="black"/>
<path d="M28.6048 44.3045C35.7763 44.3045 41.6109 38.5171 41.6109 31.4038C41.6109 28.8588 40.8612 26.4862 39.5736 24.4851C42.1417 23.3326 47.8258 21.2036 54.9302 21.127C55.0682 21.1254 55.2041 21.1246 55.3413 21.1246C67.8692 21.1246 78.7348 27.3549 87.6569 39.6446L76.1639 37.1117C75.263 36.9124 74.3663 37.4777 74.1657 38.3733C73.9647 39.2689 74.5346 40.1567 75.4375 40.3553L91.3995 43.8737C91.5201 43.9003 91.6415 43.9136 91.7629 43.9136C92.1593 43.9136 92.5476 43.774 92.8546 43.5125C93.255 43.1712 93.4698 42.663 93.4343 42.1403L92.252 24.7439C92.1901 23.8287 91.4007 23.136 90.4682 23.1981C89.5451 23.2599 88.8475 24.0523 88.9098 24.9675L89.715 36.8127C77.8098 20.987 64.2926 17.7192 54.8947 17.8048C46.3021 17.8975 39.6848 20.7087 37.3398 21.8533C35.0294 19.7728 31.9639 18.5034 28.6056 18.5034C21.4342 18.5034 15.5996 24.2908 15.5996 31.4042C15.5988 38.5171 21.4334 44.3045 28.6048 44.3045ZM28.6048 21.826C33.9294 21.826 38.2608 26.1223 38.2608 31.4038C38.2608 36.6852 33.9294 40.9816 28.6048 40.9816C23.2803 40.9816 18.9489 36.6852 18.9489 31.4038C18.9489 26.1223 23.2803 21.826 28.6048 21.826Z" fill="black"/>
<path d="M82.7886 65.5862C82.3882 65.9275 82.1734 66.4357 82.2089 66.9583L83.3912 84.3548C83.4507 85.232 84.1866 85.9044 85.0607 85.9044C85.0986 85.9044 85.1364 85.9032 85.175 85.9005C86.0981 85.8387 86.7957 85.0463 86.7334 84.1312L85.9219 72.1929C97.5304 86.9908 110.463 90.2383 119.569 90.2383C119.63 90.2383 119.692 90.2383 119.753 90.2379C128.355 90.1968 134.949 87.3939 137.226 86.2836C139.002 91.3122 143.833 94.9291 149.501 94.9291C156.673 94.9291 162.507 89.1417 162.507 82.0283C162.507 74.915 156.673 69.1276 149.501 69.1276C142.33 69.1276 136.495 74.915 136.495 82.0283C136.495 82.3247 136.509 82.6171 136.529 82.9083C136.495 82.9244 136.46 82.9341 136.427 82.9525C136.356 82.9924 129.251 86.9075 119.591 86.9154C119.581 86.9154 119.572 86.9154 119.562 86.9154C107.433 86.9154 96.8367 81.0448 88.032 69.4634L99.4785 71.9865C100.382 72.1874 101.277 71.621 101.477 70.725C101.678 69.8293 101.108 68.9415 100.205 68.7429L84.2433 65.2246C83.7294 65.1112 83.1891 65.2449 82.7886 65.5862ZM149.501 72.4505C154.826 72.4505 159.157 76.7469 159.157 82.0283C159.157 87.3098 154.826 91.6061 149.501 91.6061C144.177 91.6061 139.845 87.3098 139.845 82.0283C139.845 76.7469 144.177 72.4505 149.501 72.4505Z" fill="black"/>
<path d="M123.585 55.3202C123.883 55.5363 124.229 55.6403 124.572 55.6403C125.088 55.6403 125.598 55.4042 125.926 54.9597L131.637 47.2119L139.448 52.8768C139.746 53.093 140.092 53.197 140.435 53.197C140.952 53.197 141.461 52.9609 141.789 52.5164C142.335 51.7752 142.173 50.7361 141.426 50.1947L133.615 44.5297L139.326 36.7818C139.872 36.0406 139.709 35.0015 138.962 34.4601C138.215 33.9183 137.167 34.0801 136.622 34.8205L130.911 42.5684L123.099 36.9034C122.352 36.3616 121.304 36.5234 120.759 37.2638C120.212 38.005 120.375 39.0441 121.122 39.5856L128.933 45.2506L123.222 52.9984C122.675 53.7396 122.838 54.7787 123.585 55.3202Z" fill="black"/>
</svg>
