<svg xmlns="http://www.w3.org/2000/svg" xmlns:xlink="http://www.w3.org/1999/xlink" version="1.1" x="0px" y="0px" viewBox="0 0 69 86.25" style="enable-background:new 0 0 69 69;" xml:space="preserve"><g><path d="M11.49072,50.3986V22.61735h3.01465c0.27637,0,0.5-0.22363,0.5-0.5s-0.22363-0.5-0.5-0.5h-3.51465   c-0.27637,0-0.5,0.22363-0.5,0.5V50.8986c0,0.27637,0.22363,0.5,0.5,0.5h47.58887c0.27637,0,0.5-0.22363,0.5-0.5V22.11735   c0-0.27637-0.22363-0.5-0.5-0.5h-2.36279c-0.27637,0-0.5,0.22363-0.5,0.5s0.22363,0.5,0.5,0.5h1.86279V50.3986H11.49072z"/><path d="M66.43945,54.44352c-0.0874-0.16113-0.25635-0.26172-0.43945-0.26172h-3.13281V21.53532   c0-1.91211-1.56104-3.46777-3.47998-3.46777h-3.17041c-0.27637,0-0.5,0.22363-0.5,0.5s0.22363,0.5,0.5,0.5h3.17041   c1.36768,0,2.47998,1.10742,2.47998,2.46777V54.1818H7.71484V21.53532c0-1.36035,1.10742-2.46777,2.46826-2.46777h13.00146   c0.27637,0,0.5-0.22363,0.5-0.5s-0.22363-0.5-0.5-0.5H10.1831c-1.9126,0-3.46826,1.55566-3.46826,3.46777V54.1818H3   c-0.19189,0-0.3667,0.11035-0.4502,0.2832s-0.06055,0.37793,0.05859,0.52832l3.07666,3.86523   c1.17578,1.81152,3.16602,2.89258,5.32422,2.89258h47.5498c2.15771,0,4.14795-1.08105,5.32373-2.89258l2.53662-3.9043   C66.51904,54.80095,66.52685,54.60466,66.43945,54.44352z M42.16796,55.19157l-1.26074,1.78613   c-0.32227,0.45508-0.84717,0.72754-1.40479,0.72754h-9.43408c-0.55811,0-1.08301-0.27246-1.40479-0.72754l-1.26074-1.78613   H42.16796z M63.04394,58.31364c-0.99072,1.52637-2.66699,2.4375-4.48486,2.4375h-47.5498   c-1.81787,0-3.49463-0.91113-4.51318-2.47656L4.03613,55.1818h22.13586l1.67468,2.37207   c0.50879,0.7207,1.33936,1.15137,2.22168,1.15137h9.43408c0.88184,0,1.7124-0.43066,2.22168-1.15137l1.67468-2.37207h21.68029   L63.04394,58.31364z"/><path d="M41.85351,20.51481c-0.09375-0.25977-0.38037-0.39355-0.64063-0.29883c-0.25977,0.09375-0.39355,0.38086-0.2998,0.64063   l1.49658,4.12598c0.07373,0.20313,0.26563,0.3291,0.47021,0.3291c0.05664,0,0.11426-0.00977,0.17041-0.03027   c0.25977-0.09375,0.39355-0.38086,0.2998-0.64063L41.85351,20.51481z"/><path d="M43.37988,27.65739l0.49805,1.37207l-2.6167-0.07227c-0.27734-0.00488-0.50537,0.20996-0.51367,0.48633   c-0.00732,0.27637,0.21045,0.50586,0.48633,0.51367l3.35059,0.0918c0.00439,0,0.00928,0,0.01367,0   c0.16016,0,0.31152-0.07715,0.40527-0.20703c0.09717-0.13477,0.12109-0.30762,0.06494-0.46387l-0.74805-2.0625   c-0.09424-0.25977-0.38135-0.39355-0.64063-0.29883C43.41992,27.11052,43.28613,27.39762,43.37988,27.65739z"/><path d="M43.05322,14.43705l-2.24854-6.19861c-0.16943-0.46777-0.55811-0.82031-1.04004-0.94238   c-0.48193-0.12402-0.99121,0-1.36328,0.3291L24.35321,20.03502l-7.34589,2.66437c-1.67518,0.60644-2.51024,2.43763-1.91406,4.0918   l2.45996,6.78125c0.4707,1.29688,1.69971,2.10449,3.00586,2.10449c0.28583,0,0.57446-0.05127,0.86053-0.13214l3.2337,8.91241   c0.53979,1.48997,2.17224,2.25783,3.64551,1.72168c1.49658-0.54199,2.24072-2.14941,1.69434-3.6582l-2.0965-5.7796   c2.0415-0.25717,3.31181-2.03527,3.12433-3.86481l16.70703,0.46179c0.01367,0,0.02783,0,0.0415,0   c1.03734,0,1.76525-1.03138,1.41016-2.01172l-2.22748-6.14069c2.67322-1.24115,4.00385-4.35327,2.97894-7.1806   C48.9445,15.28623,46.05643,13.63314,43.05322,14.43705z M18.49316,33.23063l-2.45947-6.78027   c-0.40716-1.12723,0.15636-2.39127,1.31445-2.81152l6.96637-2.52618l3.95569,10.90521l-6.966,2.52722   C20.16748,34.95524,18.90576,34.36735,18.49316,33.23063z M27.958,45.23942c-0.96639,0.34733-2.01634-0.16129-2.36426-1.12305   l-3.22656-8.89258l3.45953-1.2547c0.20611,0.56815,3.40955,9.39832,3.22601,8.8924   C29.40869,43.84294,28.92773,44.88786,27.958,45.23942z M27.54742,35.77842l-0.78003-2.15045   c0.10057-0.03654,2.36822-0.86041,2.22357-0.80786l1.01941,0.0282C30.24663,34.3698,29.06764,35.73306,27.54742,35.77842z    M47.75537,32.33805c-1.55669-0.04307,6.2215,0.17214-18.49017-0.5116l-4.06464-11.20551L39.06347,8.37419   c0.12646-0.11035,0.29199-0.15234,0.45459-0.10938c0.1626,0.04102,0.28906,0.15625,0.34619,0.31445   c2.02747,5.58951,6.1473,16.94741,8.375,23.08887C48.36386,32.00815,48.09205,32.3588,47.75537,32.33805z M48.99072,18.34684   c0.8374,2.30756-0.224,4.84857-2.3797,5.89832l-3.22461-8.88953C45.68018,14.77738,48.14442,16.01163,48.99072,18.34684z"/><path d="M53.03564,16.35368l-2.11035,0.76563c-0.25977,0.09375-0.39355,0.38086-0.2998,0.64063   c0.09408,0.2592,0.38167,0.3934,0.64063,0.29883l2.11035-0.76563c0.25977-0.09375,0.39355-0.38086,0.2998-0.64063   C53.58203,16.39274,53.29589,16.25895,53.03564,16.35368z"/><path d="M50.10302,12.57341l-1.44482,1.71875c-0.17773,0.21094-0.15039,0.52637,0.06104,0.7041   c0.20933,0.17662,0.52579,0.15163,0.70459-0.06152l1.44482-1.71875c0.17773-0.21094,0.15039-0.52637-0.06104-0.7041   S50.28125,12.36149,50.10302,12.57341z"/><path d="M46.26562,13.15153l0.39258-2.21094c0.04834-0.27246-0.13281-0.53223-0.40479-0.58008   c-0.27539-0.04688-0.53174,0.13281-0.57959,0.4043l-0.39258,2.21094c-0.04834,0.27246,0.13281,0.53223,0.40479,0.58008   C45.97498,13.6032,46.21966,13.41058,46.26562,13.15153z"/><path d="M51.93847,26.2277c0.17773-0.21191,0.15039-0.52734-0.06104-0.70508l-1.71826-1.44531   c-0.21143-0.17773-0.52637-0.14941-0.70459,0.06055c-0.17773,0.21191-0.15039,0.52734,0.06104,0.70508l1.71826,1.44531   C51.44366,26.46525,51.75965,26.43911,51.93847,26.2277z"/><path d="M53.68505,21.09294l-2.21045-0.3916c-0.27734-0.05859-0.53174,0.13281-0.57959,0.40527   c-0.04834,0.27148,0.1333,0.53125,0.40479,0.5791l2.21045,0.3916c0.28898,0.04737,0.53363-0.14519,0.57959-0.40527   C54.13818,21.40055,53.95703,21.14079,53.68505,21.09294z"/></g><text x="0" y="84" fill="#000000" font-size="5px" font-weight="bold" font-family="'Helvetica Neue', Helvetica, Arial-Unicode, Arial, Sans-serif">Created by Vectors Point</text><text x="0" y="89" fill="#000000" font-size="5px" font-weight="bold" font-family="'Helvetica Neue', Helvetica, Arial-Unicode, Arial, Sans-serif">from the Noun Project</text></svg>