<svg width="210" height="210" viewBox="0 0 210 210" fill="none" xmlns="http://www.w3.org/2000/svg">
<g clip-path="url(#clip0_336_1595)">
<path d="M51.7127 96.9001L44.7051 96.8801C44.5274 96.8801 44.383 96.7417 44.383 96.5715V63.1997C44.383 62.4073 43.9148 61.6828 43.1736 61.3286L35.2287 57.53L43.1736 53.7317C43.9145 53.3774 44.383 52.653 44.383 51.8605V43.4923C44.383 43.3225 44.5274 43.1844 44.7051 43.1844H141.482C141.659 43.1844 141.804 43.3227 141.804 43.4923V90.624C141.804 91.7794 142.783 92.716 143.991 92.716C145.2 92.716 146.179 91.7794 146.179 90.624V43.4921C146.179 41.0151 144.072 39 141.482 39H44.7051C42.1146 39 40.0073 41.0153 40.0073 43.4921V50.5674L29.3579 55.6589C28.6169 56.0131 28.1484 56.7375 28.1484 57.53C28.1484 58.3225 28.6163 59.0469 29.3579 59.4011L40.0073 64.4926V96.5715C40.0073 99.0488 42.1149 101.064 44.6986 101.064L51.6995 101.084C52.9113 101.084 53.8903 100.152 53.8938 98.9983C53.8976 97.843 52.9207 96.9035 51.7127 96.9001Z" fill="black"/>
<path d="M162.851 107.607C162.851 101.703 157.828 96.9002 151.654 96.9002L124.264 96.9005C129.095 88.4054 131.725 77.8556 131.725 66.7588C131.725 60.855 126.702 56.0522 120.528 56.0522C114.354 56.0522 109.331 60.855 109.331 66.7588C109.331 83.3789 95.1906 96.9002 77.8092 96.9002H60.4574C59.2488 96.9002 58.2695 97.8369 58.2695 98.9923V167.908C58.2695 169.063 59.2488 170 60.4574 170H77.8092C79.0178 170 79.9971 169.063 79.9971 167.908V101.019C98.776 99.9337 113.707 84.9833 113.707 66.7588C113.707 63.1621 116.767 60.2363 120.528 60.2363C124.29 60.2363 127.349 63.1621 127.349 66.7588C127.349 78.51 124.236 89.5521 118.583 97.8508C118.145 98.4941 118.11 99.315 118.492 99.9898C118.875 100.665 119.613 101.085 120.416 101.085L151.654 101.084C155.415 101.084 158.475 104.01 158.475 107.607C158.475 111.203 155.415 114.129 151.654 114.129H140.584C139.375 114.129 138.396 115.066 138.396 116.221C138.396 117.377 139.375 118.313 140.584 118.313H147.964C151.725 118.313 154.785 121.239 154.785 124.836C154.785 128.432 151.725 131.358 147.964 131.358H140.584C139.375 131.358 138.396 132.295 138.396 133.45C138.396 134.606 139.375 135.542 140.584 135.542H144.273C148.035 135.542 151.095 138.468 151.095 142.065C151.095 145.661 148.035 148.587 144.273 148.587H140.584C139.375 148.587 138.396 149.524 138.396 150.679C138.396 151.835 139.375 152.771 140.584 152.771C144.345 152.771 147.405 155.697 147.405 159.294C147.405 162.89 144.345 165.816 140.584 165.816H86.5613C85.3527 165.816 84.3734 166.753 84.3734 167.908C84.3734 169.064 85.3527 170 86.5613 170H140.584C146.758 170 151.781 165.198 151.781 159.294C151.781 156.432 150.601 153.83 148.682 151.907C152.671 150.267 155.471 146.473 155.471 142.065C155.471 139.203 154.291 136.601 152.372 134.678C156.36 133.038 159.161 129.244 159.161 124.836C159.161 121.975 157.981 119.372 156.061 117.449C160.051 115.809 162.851 112.015 162.851 107.607ZM75.622 165.816H62.6459V101.084H75.622V165.816Z" fill="black"/>
<path d="M134.02 159.54V107.361C134.02 106.205 133.041 105.269 131.832 105.269C130.624 105.269 129.645 106.205 129.645 107.361V159.54C129.645 160.695 130.624 161.632 131.832 161.632C133.041 161.632 134.02 160.695 134.02 159.54Z" fill="black"/>
</g>
<defs>
<clipPath id="clip0_336_1595">
<rect width="137" height="131" fill="white" transform="translate(27 39)"/>
</clipPath>
</defs>
</svg>
